<?xml version="1.0" encoding="utf-8"?>
<!-- Generator: Adobe Illustrator 16.0.0, SVG Export Plug-In . SVG Version: 6.00 Build 0)  -->
<!DOCTYPE svg PUBLIC "-//W3C//DTD SVG 1.0//EN" "http://www.w3.org/TR/2001/REC-SVG-20010904/DTD/svg10.dtd">
<svg version="1.0" id="Layer_1" xmlns="http://www.w3.org/2000/svg" xmlns:xlink="http://www.w3.org/1999/xlink" x="0px" y="0px"
	 width="2560px" height="1440px" viewBox="0 0 2560 1440" enable-background="new 0 0 2560 1440" xml:space="preserve">
<path fill="none" stroke="#000000" stroke-width="4" stroke-miterlimit="10" d="M146.84,847.221c-10.8,10.8-18,21.6-28.8,36
	c-36,72-54,136.8-54,198c0,75.6,25.2,144,82.8,208.8c7.2,10.8,18,21.6,28.8,25.2c10.801,7.2,18,7.2,25.2,10.8
	c3.601,0,7.2,3.6,10.8,3.6l561.601,61.2c25.2,3.601,54-3.6,75.6-21.6c21.6-18,36-43.2,39.6-75.601c3.6-39.6-10.8-72-36-93.6h43.2
	c57.6,0,104.4-46.8,104.4-108s-46.8-108-104.4-108h-32.4c32.4-18,54-54,54-93.6c0-3.601,0-10.801,0-14.4c-3.6-28.8-18-54-39.6-72
	c-25.2-14.4-54-21.6-79.2-18l-280.801,36c28.801-36,28.801-93.6,3.601-129.6c-14.4-21.601-39.601-39.601-68.4-43.2
	c-28.8-3.601-54,3.6-75.6,21.6L146.84,847.221z"/>
</svg>
